# xmcd
#
# Track frame offsets:
#	183
#	18003
#	37680
#	50890
#	72120
#	88023
#	108488
#	119655
#	145353
#	164500
#	177875
#	199390
#
# Disc length: 2944 seconds
#
# Revision: 0
# Processed by: cddbd v1.4PL0 Copyright (c) Steve Scherf et al.
# Submitted via: dBpowerAMP V4.0
#
DISCID=a90b7e0c
DTITLE=MANOU - MAHANA
DYEAR=1900
DGENRE=Ethnic
TTITLE0=Viens avec moi
TTITLE1=Te mau motu no patitifa
TTITLE2=Ua moe to'u here
TTITLE3=Mahana rahi
TTITLE4=Une vie au bord de l'ocean
TTITLE5=E ta'u i here
TTITLE6=Exorythme
TTITLE7=Te here o te henua
TTITLE8=Tingeting
TTITLE9=Comedie sauvage
TTITLE10=Te hono
TTITLE11=Bonjour calédonie
EXTD=
EXTT0=
EXTT1=
EXTT2=
EXTT3=
EXTT4=
EXTT5=
EXTT6=
EXTT7=
EXTT8=
EXTT9=
EXTT10=
EXTT11=
PLAYORDER=
